<svg xmlns="http://www.w3.org/2000/svg" id="twotone-note_add-24px" viewBox="0 0 15 15">
    <defs>
        <style>
            .cls-1{fill:none}.cls-2,.cls-3{fill:#fff}.cls-2{opacity:.405}
        </style>
    </defs>
    <path id="Shape" d="M0 0h15v15H0z" class="cls-1"/>
    <path id="Shape-2" d="M7.5 10H0V0h4.375v3.125H7.5V10zM1.25 6.25V7.5h1.875v1.875h1.25V7.5H6.25V6.25H4.375V4.375h-1.25V6.25z" class="cls-2" data-name="Shape" transform="translate(3.75 2.5)"/>
    <path id="Shape-3" d="M8.75 12.5H1.244A1.248 1.248 0 0 1 0 11.25v-10A1.252 1.252 0 0 1 1.25 0h5L10 3.75v7.5a1.252 1.252 0 0 1-1.25 1.25zM1.25 1.25v10h7.5V4.375H5.625V1.25zm4.375 9.375h-1.25V8.75H2.5V7.5h1.875V5.625h1.25V7.5H7.5v1.25H5.625v1.875z" class="cls-3" data-name="Shape" transform="translate(2.5 1.25)"/>
</svg>
