<svg xmlns="http://www.w3.org/2000/svg" id="ic_settings" viewBox="0 0 14 14">
    <defs>
        <style>
            .cls-1{fill:none}.cls-2{fill:#b7c0cd}
        </style>
    </defs>
    <g id="Icon_24px" data-name="Icon 24px">
        <path id="Shape" d="M0 0h14v14H0z" class="cls-1"/>
        <path id="Shape-2" d="M5.7 10H3.757a.239.239 0 0 1-.238-.21l-.185-1.325a3.541 3.541 0 0 1-.821-.49l-1.21.5a.242.242 0 0 1-.3-.11l-.969-1.73a.257.257 0 0 1 .058-.32l1.026-.825A3.983 3.983 0 0 1 1.084 5a3.981 3.981 0 0 1 .034-.49L.092 3.685a.25.25 0 0 1-.058-.32l.972-1.73a.234.234 0 0 1 .3-.11l1.21.5a3.686 3.686 0 0 1 .821-.49L3.519.21A.239.239 0 0 1 3.757 0H5.7a.239.239 0 0 1 .238.21l.185 1.325a3.562 3.562 0 0 1 .821.49l1.21-.5a.242.242 0 0 1 .3.11l.972 1.73a.257.257 0 0 1-.059.32L8.34 4.51a4.094 4.094 0 0 1 .034.49 4.074 4.074 0 0 1-.034.49l1.025.825a.257.257 0 0 1 .059.32l-.972 1.73a.234.234 0 0 1-.3.11l-1.21-.5a3.676 3.676 0 0 1-.821.49L5.939 9.79A.239.239 0 0 1 5.7 10zm-.972-6.75a1.751 1.751 0 0 0 0 3.5 1.751 1.751 0 0 0 0-3.5z" class="cls-2" data-name="Shape" transform="translate(2.27 2)"/>
    </g>
</svg>
